<?xml version="1.0" encoding="UTF-8" standalone="no"?>
<!-- Created with Inkscape (http://www.inkscape.org/) -->

<svg
   xmlns:dc="http://purl.org/dc/elements/1.1/"
   xmlns:cc="http://creativecommons.org/ns#"
   xmlns:rdf="http://www.w3.org/1999/02/22-rdf-syntax-ns#"
   xmlns:svg="http://www.w3.org/2000/svg"
   xmlns="http://www.w3.org/2000/svg"
   xmlns:xlink="http://www.w3.org/1999/xlink"
   xmlns:sodipodi="http://sodipodi.sourceforge.net/DTD/sodipodi-0.dtd"
   xmlns:inkscape="http://www.inkscape.org/namespaces/inkscape"
   width="48"
   height="48"
   id="svg2"
   version="1.1"
   inkscape:version="0.48.4 r9939"
   sodipodi:docname="icon.svg">
  <defs
     id="defs4">
    <linearGradient
       id="linearGradient7567">
      <stop
         id="stop7569"
         offset="0"
         style="stop-color:#9bdfee;stop-opacity:1;" />
      <stop
         id="stop7571"
         offset="1"
         style="stop-color:#66b7c9;stop-opacity:1;" />
    </linearGradient>
    <linearGradient
       gradientTransform="matrix(0.06637582,0,0,0.06618559,-0.48474807,86.862184)"
       gradientUnits="userSpaceOnUse"
       y2="62.151302"
       x2="2.41994"
       y1="3"
       x1="61.9585"
       id="linearGradient3779"
       xlink:href="#linearGradient7567"
       inkscape:collect="always" />
  </defs>
  <sodipodi:namedview
     id="base"
     pagecolor="#ffffff"
     bordercolor="#666666"
     borderopacity="1.0"
     inkscape:pageopacity="0.0"
     inkscape:pageshadow="2"
     inkscape:zoom="13.344331"
     inkscape:cx="38.979098"
     inkscape:cy="18.921892"
     inkscape:document-units="px"
     inkscape:current-layer="layer1"
     showgrid="false"
     inkscape:window-width="1920"
     inkscape:window-height="1056"
     inkscape:window-x="0"
     inkscape:window-y="24"
     inkscape:window-maximized="1" />
  <metadata
     id="metadata7">
    <rdf:RDF>
      <cc:Work
         rdf:about="">
        <dc:format>image/svg+xml</dc:format>
        <dc:type
           rdf:resource="http://purl.org/dc/dcmitype/StillImage" />
        <dc:title />
      </cc:Work>
    </rdf:RDF>
  </metadata>
  <g
     inkscape:label="Layer 1"
     inkscape:groupmode="layer"
     id="layer1"
     transform="translate(0,-1004.3622)">
    <g
       transform="matrix(11.52364,0,0,11.52364,-3947.5338,-5762.4485)"
       id="layer1-8"
       inkscape:label="Layer 1">
      <g
         id="g5228"
         style="display:inline"
         transform="translate(343,500.31673)">
        <rect
           style="fill:url(#linearGradient3779);fill-opacity:1;stroke:none"
           id="rect2993"
           width="4.1653504"
           height="4.1594281"
           x="-0.44037473"
           y="86.900414"
           ry="0.1949732" />
      </g>
    </g>
    <path
       style="fill:#000000;fill-opacity:1;stroke-width:0.1;stroke-miterlimit:4;stroke-dasharray:none"
       d="m 4.8447002,1044.2882 c -0.1573156,-0.036 -0.404749,-0.1854 -0.549834,-0.3305 l -0.263811,-0.2638 -0.025058,-14.3152 c -0.017333,-9.9369 0.00248,-14.4104 0.064964,-14.6263 0.04945,-0.171 0.2064322,-0.4089 0.3487374,-0.5287 l 0.2587344,-0.2177 3.846569,0 c 3.272808,0 3.883586,0.019 4.094713,0.1283 0.541016,0.2798 0.504775,-0.7982 0.504775,15.0134 0,15.7156 0.03344,14.674 -0.482074,15.0233 -0.222931,0.1511 -0.452172,0.1614 -3.8743372,0.1723 -2.0005599,0.01 -3.7660984,-0.018 -3.9234111,-0.055 z m 6.7336578,-1.6164 c 0.13937,-0.1393 0.08692,-0.2361 -0.972096,-1.7934 -1.1673005,-1.7167 -1.1959235,-1.8184 -0.7186361,-2.5527 0.1814401,-0.279 0.6211581,-0.8691 0.9771391,-1.311 0.656437,-0.8151 0.759658,-1.0406 0.518728,-1.133 -0.252786,-0.097 -1.059061,-0.052 -1.300936,0.075 -0.13314,0.069 -0.5666011,0.5161 -0.9632518,0.9939 -0.8016647,0.9657 -1.1378,1.2252 -1.4032693,1.0831 -0.2016774,-0.1079 -0.3345257,-0.5422 -0.2798327,-0.9148 0.056916,-0.3874 -0.051356,-1.0091 -0.2017929,-1.1595 -0.096956,-0.097 -0.3310479,-0.1279 -0.9677563,-0.1279 -0.9754497,0 -0.938205,-0.054 -0.6529715,0.9305 0.1696514,0.585 0.1850833,0.8389 0.1979191,3.2567 l 0.013945,2.6224 0.7945779,0 0.7945801,0 0.012199,-0.9809 c 0.015014,-1.2093 0.139046,-1.5396 0.5625878,-1.4985 0.2364308,0.023 0.3722497,0.1634 1.1160598,1.1532 0.4657793,0.6198 0.9216938,1.1687 1.0131478,1.2198 0.390089,0.2178 1.294499,0.3035 1.459704,0.1384 z m 3.343373,1.5329 c -0.664098,-0.2973 -0.612947,0.8738 -0.612947,-14.0363 0,-14.4865 -0.02696,-13.6907 0.47561,-14.0199 0.219839,-0.144 0.499547,-0.1547 4.092268,-0.1547 3.59273,0 3.872437,0.011 4.092268,0.1547 0.502608,0.3292 0.475609,-0.4666 0.475609,14.0199 0,14.6668 0.03834,13.654 -0.530053,13.9978 -0.25968,0.1571 -0.460907,0.166 -3.968299,0.1757 -3.346291,0.01 -3.725832,0 -4.024456,-0.1372 z m 5.88545,-1.5824 c 0.200623,-0.033 0.30445,-0.1075 0.362982,-0.2614 0.142853,-0.3757 -0.05476,-0.4681 -1.12965,-0.5278 -1.008627,-0.055 -1.381058,-0.176 -1.623965,-0.5227 -0.167741,-0.2396 -0.169516,-0.7653 -0.0034,-1.1147 0.208499,-0.4392 0.52734,-0.5679 1.581392,-0.6373 0.990871,-0.065 1.198456,-0.1615 1.106851,-0.5117 -0.05883,-0.2249 -0.20449,-0.2629 -1.209282,-0.3156 -0.929211,-0.049 -1.255017,-0.1516 -1.475188,-0.466 -0.152043,-0.2171 -0.175024,-0.843 -0.04014,-1.0948 0.16049,-0.2999 0.733074,-0.4819 1.71618,-0.5456 0.908824,-0.058 1.152648,-0.1461 1.152648,-0.4138 0,-0.064 -0.05982,-0.1745 -0.132923,-0.2477 -0.114627,-0.1145 -0.464849,-0.1329 -2.543415,-0.1329 -2.256008,0 -2.407672,0.01 -2.366636,0.1481 0.360851,1.2184 0.390512,1.5083 0.390512,3.8166 0,2.4521 0.03012,2.6551 0.414024,2.7887 0.237335,0.083 3.336317,0.114 3.800428,0.038 z m 4.604616,1.6642 c -0.150926,-0.034 -0.33425,-0.1098 -0.407384,-0.1706 -0.392877,-0.326 -0.375688,0.4088 -0.374358,-16.0002 8.19e-4,-12.1658 0.02356,-15.465 0.10697,-15.6299 0.05815,-0.1148 0.234515,-0.2956 0.391921,-0.4017 l 0.286193,-0.1929 3.712189,0 c 4.04325,0 4.113176,0.01 4.429622,0.4749 0.162666,0.2402 0.165122,0.4938 0.152965,15.7556 -0.01211,15.1664 -0.01602,15.5166 -0.175193,15.734 -0.377268,0.515 -0.391937,0.5166 -4.293447,0.503 -1.955294,-0.01 -3.678569,-0.039 -3.829478,-0.073 z m 1.901964,-1.6827 c 0.340122,-0.098 0.585642,-0.3693 1.11889,-1.2388 0.690844,-1.1263 0.935001,-1.1098 1.68744,0.1147 0.675869,1.0998 0.752679,1.1653 1.334084,1.1397 0.254774,-0.012 0.498194,-0.042 0.540914,-0.068 0.164822,-0.1018 0.05956,-0.4218 -0.424927,-1.2923 -0.820839,-1.4744 -1.046934,-2.0102 -0.999046,-2.3672 0.03617,-0.2699 0.761202,-1.599 1.265819,-2.3209 0.09167,-0.131 0.150828,-0.3339 0.135719,-0.4651 -0.02531,-0.2203 -0.05276,-0.2342 -0.510971,-0.2581 -0.266299,-0.015 -0.561185,0.015 -0.655295,0.066 -0.0941,0.05 -0.398592,0.4298 -0.676641,0.8435 -0.710582,1.0567 -0.895036,1.0577 -1.595894,0.01 -0.600436,-0.8987 -0.652829,-0.9379 -1.263727,-0.9465 -0.282481,0 -0.554571,0.018 -0.604666,0.049 -0.199005,0.123 -0.06506,0.53 0.500409,1.5197 0.741665,1.2983 0.812534,1.4928 0.691038,1.897 -0.05111,0.1701 -0.410292,0.8803 -0.798132,1.5782 -0.38783,0.6978 -0.72935,1.3327 -0.75892,1.4107 -0.114486,0.302 0.459582,0.4887 1.013906,0.3297 z m 8.339958,1.6765 c -0.14735,-0.043 -0.366226,-0.1936 -0.486398,-0.3365 l -0.218494,-0.2596 0,-11.4017 0,-11.4018 0.183383,-0.2331 c 0.360576,-0.4585 0.435155,-0.4665 4.342207,-0.4665 3.907052,0 3.981629,0.01 4.342198,0.4665 L 44,1020.8807 l -0.0016,11.3448 c -8.19e-4,8.8355 -0.02431,11.3898 -0.105741,11.5482 -0.0575,0.1118 -0.211941,0.283 -0.343288,0.3806 -0.233246,0.1733 -0.32461,0.1776 -3.93345,0.19 -2.032055,0.01 -3.81521,-0.022 -3.962557,-0.065 z m 2.776396,-1.8216 c 0.128458,-0.1161 0.156326,-0.27 0.157348,-0.8682 3.55e-4,-0.4073 0.04729,-0.818 0.105932,-0.9338 0.167837,-0.3318 0.576946,-0.511 1.37141,-0.6014 0.80617,-0.092 1.196829,-0.2252 1.634658,-0.5592 0.753317,-0.5745 0.929251,-2.0485 0.3362,-2.8168 -0.25622,-0.3318 -0.680425,-0.594 -1.173574,-0.7254 -0.490371,-0.1304 -4.136971,-0.1835 -4.136739,-0.06 5.8e-5,0.035 0.05708,0.387 0.126765,0.7825 0.09269,0.5263 0.126684,1.3661 0.126767,3.1322 7.2e-5,2.5981 0.02274,2.7408 0.444963,2.8075 0.367638,0.058 0.851984,-0.017 1.00627,-0.1572 z m 0.689725,-3.4148 c -0.33986,-0.1369 -0.491398,-0.4882 -0.490511,-1.1373 6.41e-4,-0.6791 0.153638,-0.9953 0.546977,-1.1324 0.536668,-0.1871 1.342398,0.287 1.490469,0.8769 0.220196,0.8774 -0.72156,1.7253 -1.546935,1.3928 z"
       inkscape:connector-curvature="0"
       id="path14"
       sodipodi:nodetypes="cccscccscsscccccssccscccssscccccsccccscscsscccscccsccsccscscscccccccccscscccccsscccssccccsccccscccccccccsccccccccccssssccccccccscc" />
  </g>
</svg>
