<?xml version="1.0" encoding="UTF-8" standalone="no"?>
<!-- Created with Inkscape (http://www.inkscape.org/) -->

<svg
   xmlns:dc="http://purl.org/dc/elements/1.1/"
   xmlns:cc="http://creativecommons.org/ns#"
   xmlns:rdf="http://www.w3.org/1999/02/22-rdf-syntax-ns#"
   xmlns:svg="http://www.w3.org/2000/svg"
   xmlns="http://www.w3.org/2000/svg"
   xmlns:xlink="http://www.w3.org/1999/xlink"
   xmlns:sodipodi="http://sodipodi.sourceforge.net/DTD/sodipodi-0.dtd"
   xmlns:inkscape="http://www.inkscape.org/namespaces/inkscape"
   width="48"
   height="48"
   id="svg2"
   version="1.1"
   inkscape:version="0.48.5 r10040"
   sodipodi:docname="icon-xs.svg">
  <defs
     id="defs4">
    <linearGradient
       id="linearGradient7567">
      <stop
         id="stop7569"
         offset="0"
         style="stop-color:#9bdfee;stop-opacity:1;" />
      <stop
         id="stop7571"
         offset="1"
         style="stop-color:#66b7c9;stop-opacity:1;" />
    </linearGradient>
    <linearGradient
       gradientTransform="matrix(0.06637582,0,0,0.06618559,-0.48474807,86.862184)"
       gradientUnits="userSpaceOnUse"
       y2="62.151302"
       x2="2.41994"
       y1="3"
       x1="61.9585"
       id="linearGradient3779"
       xlink:href="#linearGradient7567"
       inkscape:collect="always" />
  </defs>
  <sodipodi:namedview
     id="base"
     pagecolor="#ffffff"
     bordercolor="#666666"
     borderopacity="1.0"
     inkscape:pageopacity="0.0"
     inkscape:pageshadow="2"
     inkscape:zoom="15.163261"
     inkscape:cx="39.527899"
     inkscape:cy="13.549504"
     inkscape:document-units="px"
     inkscape:current-layer="g4145"
     showgrid="false"
     inkscape:window-width="1366"
     inkscape:window-height="702"
     inkscape:window-x="0"
     inkscape:window-y="27"
     inkscape:window-maximized="1" />
  <metadata
     id="metadata7">
    <rdf:RDF>
      <cc:Work
         rdf:about="">
        <dc:format>image/svg+xml</dc:format>
        <dc:type
           rdf:resource="http://purl.org/dc/dcmitype/StillImage" />
        <dc:title />
      </cc:Work>
    </rdf:RDF>
  </metadata>
  <g
     inkscape:label="Layer 1"
     inkscape:groupmode="layer"
     id="layer1"
     transform="translate(0,-1004.3622)">
    <g
       transform="matrix(11.52364,0,0,11.52364,-3947.5338,-5762.4485)"
       id="layer1-8"
       inkscape:label="Layer 1">
      <g
         id="g5228"
         style="display:inline"
         transform="translate(343,500.31673)">
        <rect
           style="fill:url(#linearGradient3779);fill-opacity:1;stroke:none"
           id="rect2993"
           width="4.1653504"
           height="4.1594281"
           x="-0.44037473"
           y="86.900414"
           ry="0.1949732" />
      </g>
    </g>
    <g
       id="g4145"
       transform="matrix(1.0897016,0,0,1.0897016,-1.8530849,-92.86201)">
      <rect
         ry="0.1949732"
         transform="translate(0,1004.3622)"
         y="30.61434"
         x="4.7960439"
         height="8.3930769"
         width="7.6436954"
         id="rect2990"
         style="fill:#ffffff;fill-opacity:1;stroke:none" />
      <rect
         ry="0.1949732"
         transform="translate(0,1004.3622)"
         y="30.164711"
         x="15.437267"
         height="9.0675211"
         width="6.8943133"
         id="rect2992"
         style="fill:#ffffff;fill-opacity:1;stroke:none" />
      <rect
         ry="0.1949732"
         transform="translate(0,1004.3622)"
         y="30.764217"
         x="25.404047"
         height="8.3181391"
         width="7.5687571"
         id="rect2994"
         style="fill:#ffffff;fill-opacity:1;stroke:none" />
      <rect
         ry="0.1949732"
         transform="translate(0,1004.3622)"
         y="30.464464"
         x="35.895393"
         height="8.5429535"
         width="7.0441899"
         id="rect2996"
         style="fill:#ffffff;fill-opacity:1;stroke:none" />
      <path
         sodipodi:nodetypes="cccscccscssccccscscssccccccccscsccccccccccscccccccc"
         id="path14"
         inkscape:connector-curvature="0"
         d="m 4.8447002,1044.2882 c -0.1573156,-0.036 -0.404749,-0.1854 -0.549834,-0.3305 l -0.263811,-0.2638 -0.025058,-14.3152 c -0.017333,-9.9369 0.00248,-14.4104 0.064964,-14.6263 0.04945,-0.171 0.2064322,-0.4089 0.3487374,-0.5287 l 0.2587344,-0.2177 3.846569,0 c 3.272808,0 3.883586,0.019 4.094713,0.1283 0.541016,0.2798 0.504775,-0.7982 0.504775,15.0134 0,15.7156 0.03344,14.674 -0.482074,15.0233 -0.222931,0.1511 -0.452172,0.1614 -3.8743372,0.1723 -2.0005599,0.01 -3.7660984,-0.018 -3.9234111,-0.055 z m 10.0770308,-0.083 c -0.664098,-0.2973 -0.612947,0.8738 -0.612947,-14.0363 0,-14.4865 -0.02696,-13.6907 0.47561,-14.0199 0.219839,-0.144 0.499547,-0.1547 4.092268,-0.1547 3.59273,0 3.872437,0.011 4.092268,0.1547 0.502608,0.3292 0.475609,-0.4666 0.475609,14.0199 0,14.6668 0.03834,13.654 -0.530053,13.9978 -0.25968,0.1571 -0.460907,0.166 -3.968299,0.1757 -3.346291,0.01 -3.725832,0 -4.024456,-0.1372 z m 10.490066,0.082 c -0.150926,-0.034 -0.33425,-0.1098 -0.407384,-0.1706 -0.392877,-0.326 -0.375688,0.4088 -0.374358,-16.0002 8.19e-4,-12.1658 0.02356,-15.465 0.10697,-15.6299 0.05815,-0.1148 0.234515,-0.2956 0.391921,-0.4017 l 0.286193,-0.1929 3.712189,0 c 4.04325,0 4.113176,0.01 4.429622,0.4749 0.162666,0.2402 0.165122,0.4938 0.152965,15.7556 -0.01211,15.1664 -0.01602,15.5166 -0.175193,15.734 -0.377268,0.515 -0.391937,0.5166 -4.293447,0.503 -1.955294,-0.01 -3.678569,-0.039 -3.829478,-0.073 z m 10.241922,-0.01 c -0.14735,-0.043 -0.366226,-0.1936 -0.486398,-0.3365 l -0.218494,-0.2596 0,-11.4017 0,-11.4018 0.183383,-0.2331 c 0.360576,-0.4585 0.435155,-0.4665 4.342207,-0.4665 3.907052,0 3.981629,0.01 4.342198,0.4665 L 44,1020.8807 l -0.0016,11.3448 c -8.19e-4,8.8355 -0.02431,11.3898 -0.105741,11.5482 -0.0575,0.1118 -0.211941,0.283 -0.343288,0.3806 -0.233246,0.1733 -0.32461,0.1776 -3.93345,0.19 -2.032055,0.01 -3.81521,-0.022 -3.962557,-0.065 z"
         style="fill:#000000;fill-opacity:1;stroke:#ffffff;stroke-width:0.1;stroke-miterlimit:4;stroke-dasharray:none;stroke-opacity:1" />
    </g>
  </g>
</svg>
